<svg width="756" height="128" fill="none" xmlns="http://www.w3.org/2000/svg"><path d="M18 110l46-92 46 92H18z" stroke="#0BD9A5" stroke-width="10"/><circle cx="64" cy="18" r="18" fill="#526664"/><circle cx="18" cy="110" r="18" fill="#526664"/><circle cx="110" cy="110" r="18" fill="#526664"/><path d="M152 98.614h10.102V72.07h13.271c12.577 0 21.887-8.715 21.887-21.49 0-12.875-8.913-21.294-21.887-21.294H152v69.326zm10.102-35.654V38.498h12.677c7.427 0 12.181 5.05 12.181 12.083 0 7.031-4.754 12.38-12.181 12.38h-12.677zM244.884 99.901c20.302 0 35.653-15.648 35.653-35.95 0-20.204-15.252-35.951-35.554-35.951-20.303 0-35.654 15.549-35.654 35.95 0 20.501 15.252 35.951 35.555 35.951zm.099-9.607c-14.361 0-25.156-11.092-25.156-26.343 0-15.054 10.795-26.344 25.156-26.344 14.261 0 25.155 11.29 25.155 26.343 0 15.252-10.894 26.344-25.155 26.344zM297.817 98.614h39.218v-9.211h-29.117V29.287h-10.101v69.326zM358.634 98.614h10.003V68.209l23.868-38.922H380.62l-16.836 29.117h-.693l-16.837-29.117h-11.488l23.868 38.922v30.404zM422.384 98.614h10.002V38.596h19.709v-9.31h-49.42v9.31h19.709v60.017zM498.701 99.901c20.303 0 35.653-15.648 35.653-35.95C534.354 43.746 519.103 28 498.8 28c-20.302 0-35.653 15.549-35.653 35.95 0 20.501 15.251 35.951 35.554 35.951zm.099-9.607c-14.36 0-25.155-11.092-25.155-26.343 0-15.054 10.795-26.344 25.155-26.344 14.262 0 25.156 11.29 25.156 26.343 0 15.252-10.894 26.344-25.156 26.344zM551.634 98.614h9.805v-59.72h.693l16.935 59.72h14.46l16.836-59.72h.792v59.72h9.706V29.288h-17.43l-16.837 59.719h-.693l-16.836-59.72h-17.431v69.326zM641.541 98.614h30.207V89.6h-10.102V38.3h10.102v-9.012h-30.207V38.3h10.102V89.6h-10.102v9.013zM723.321 100c15.549 0 28.127-9.111 32.583-23.472H745.01c-3.367 8.616-11.884 13.865-21.689 13.865-14.459 0-24.858-11.19-24.858-26.443 0-15.053 10.399-26.343 24.858-26.343 9.904 0 18.223 5.348 21.689 13.766h10.894C751.349 37.31 738.969 28 723.321 28c-20.402 0-35.356 15.648-35.356 35.95 0 20.501 14.855 36.05 35.356 36.05z" fill="#526664"/></svg>